<svg width="97" height="96" viewBox="0 0 97 96" fill="none" xmlns="http://www.w3.org/2000/svg">
<circle cx="48.3335" cy="48" r="48" fill="#42BAE2"/>
<path fill-rule="evenodd" clip-rule="evenodd" d="M68.3335 26.6667H28.3335C27.5971 26.6667 27.0002 27.2636 27.0002 28V68C27.0002 68.7364 27.5971 69.3333 28.3335 69.3333H68.3335C69.0699 69.3333 69.6668 68.7364 69.6668 68V28C69.6668 27.2636 69.0699 26.6667 68.3335 26.6667ZM28.3335 24C26.1244 24 24.3335 25.7909 24.3335 28V68C24.3335 70.2092 26.1244 72 28.3335 72H68.3335C70.5427 72 72.3335 70.2092 72.3335 68V28C72.3335 25.7909 70.5427 24 68.3335 24H28.3335Z" fill="white"/>
<path fill-rule="evenodd" clip-rule="evenodd" d="M39.4188 25.125C39.4188 25.3385 39.4198 30.1274 39.4216 30.3189C39.4666 35.1291 40.0892 37.4871 41.3122 38.7473C42.3863 39.8542 44.1971 40.3899 47.5976 40.4905C47.8668 37.7761 48.9494 35.6102 50.5402 34.0671C52.371 32.2913 54.7955 31.4185 57.1952 31.4185C59.5951 31.4185 62.0195 32.2913 63.8504 34.0671C65.697 35.8582 66.8586 38.4885 66.8586 41.8414V52.951C66.8586 56.0906 66.3372 59.4125 64.7222 61.991C63.0467 64.6658 60.2751 66.4039 56.1762 66.4039C51.9584 66.4039 49.0306 63.8937 46.4435 61.6615L46.3611 61.5903C43.7271 59.3175 41.3587 57.2737 38.0002 56.8098C36.5898 56.8245 35.6095 57.2026 34.905 57.7186C34.1736 58.2543 33.6487 59.0058 33.2774 59.8749C32.5183 61.6514 32.4932 63.6985 32.5299 64.5781C32.5372 64.7525 32.541 66.6422 32.5436 68.4181C32.5448 69.3217 32.5459 70.2165 32.5464 70.8853L32.5474 71.9961L29.8807 71.999L29.8798 70.8878C29.8792 70.2191 29.8782 69.3249 29.877 68.4219C29.8756 67.5189 29.8739 66.6078 29.8719 65.9054C29.8708 65.5539 29.8698 65.2558 29.8684 65.0373C29.8679 64.9278 29.8672 64.8397 29.8666 64.7754C29.8662 64.7319 29.8658 64.7071 29.8656 64.6954C29.8655 64.6869 29.8655 64.6854 29.8656 64.6891C29.824 63.6919 29.8282 61.1602 30.8252 58.827C31.3319 57.6413 32.1168 56.4554 33.3292 55.5673C34.5546 54.6698 36.1271 54.1426 38.0855 54.1426C38.6119 54.1426 39.0987 54.1545 39.5614 54.1657C40.4039 54.1861 41.1666 54.2046 41.9442 54.1463C43.0792 54.0613 43.9714 53.8167 44.697 53.2729C46.0656 52.247 47.3656 49.7331 47.5174 43.1569C43.987 43.0561 41.2332 42.495 39.3984 40.6045C37.3586 38.5025 36.7995 35.1055 36.7551 30.3438C36.7531 30.1357 36.7522 25.3245 36.7522 25.125H39.4188ZM44.1702 56.4569C45.556 57.3697 46.7778 58.4257 47.9148 59.4086C48.0056 59.487 48.0958 59.5651 48.1856 59.6425C50.866 61.9553 53.083 63.7373 56.1762 63.7373C59.3879 63.7373 61.2907 62.4455 62.4622 60.5754C63.6939 58.6091 64.1919 55.8713 64.1919 52.951V41.8414C64.1919 39.1347 63.271 37.2201 61.9938 35.9813C60.701 34.7273 58.9604 34.0851 57.1952 34.0851C55.4302 34.0851 53.6896 34.7273 52.3968 35.9813C51.1196 37.2201 50.1987 39.1347 50.1987 41.8414C50.1987 49.4277 48.8824 53.4683 46.2963 55.4066C45.6223 55.9119 44.902 56.2419 44.1702 56.4569Z" fill="white"/>
<path d="M65.5257 49.4173C59.466 54.6651 55.931 44.1694 48.3564 49.4173L46.3364 53.4571L41.2866 55.9821C41.2866 55.9821 50.8813 65.0717 56.4361 65.0717C61.9909 65.0717 66.5357 60.0219 65.5257 49.4173Z" fill="white"/>
</svg>
