<svg width="96" height="96" viewBox="0 0 96 96" fill="none" xmlns="http://www.w3.org/2000/svg">
<circle cx="48" cy="48" r="48" fill="#42BAE2"/>
<path fill-rule="evenodd" clip-rule="evenodd" d="M38.5909 36.5331C40.1149 38.1945 42.6897 38.9071 47.4084 39.0081C47.6775 35.4444 49.0501 32.6371 51.0815 30.6665C53.3396 28.4763 56.3342 27.3958 59.3051 27.3958C62.2758 27.3958 65.2704 28.4763 67.5285 30.6665C69.8018 32.8715 71.25 36.1245 71.25 40.3126V54.5209C71.25 58.5021 70.587 62.66 68.5808 65.8628C66.5162 69.1587 63.1062 71.3126 58.0016 71.3126C52.782 71.3126 49.1476 68.2149 45.8246 65.3478L45.6799 65.223C42.3336 62.335 39.2156 59.6442 34.7822 59.042C32.6082 59.0584 31.1448 59.7227 30.1231 60.6322C29.0634 61.5753 28.3801 62.8717 27.9535 64.2638C27.5277 65.6534 27.3804 67.0658 27.3435 68.1475C27.3253 68.6843 27.3345 69.1297 27.348 69.4371C27.3547 69.5906 27.3624 69.7091 27.3682 69.7866C27.3711 69.8253 27.3735 69.8538 27.3751 69.8712L27.3767 69.889L27.3769 69.8904C27.3768 69.8901 27.3768 69.8895 26.0918 70.0209C24.8068 70.1521 24.8068 70.1515 24.8067 70.151L24.8065 70.1494L24.8062 70.1458L24.8051 70.135L24.8019 70.1001C24.7993 70.0711 24.7959 70.0306 24.7921 69.9796C24.7844 69.8773 24.7751 69.7321 24.7671 69.5501C24.7512 69.1865 24.7408 68.6732 24.7617 68.0595C24.8032 66.8404 24.9693 65.1852 25.4835 63.507C25.9969 61.8315 26.8802 60.0601 28.4055 58.7024C29.9558 57.3227 32.0716 56.4584 34.865 56.4584C35.5147 56.4584 36.1269 56.4731 36.715 56.4872C37.8077 56.5136 38.8175 56.5378 39.8309 56.4619C41.3222 56.3502 42.5523 56.0252 43.5687 55.2633C45.5142 53.8052 47.2006 50.3238 47.3494 41.5914C42.5457 41.4919 38.9789 40.7777 36.6872 38.2794C35.4425 36.9226 34.6741 35.1469 34.2107 32.9502C33.7489 30.7616 33.5734 28.0739 33.5734 24.8125H36.1567C36.1567 28.0094 36.3315 30.4884 36.7383 32.417C37.1435 34.3374 37.762 35.6295 38.5909 36.5331ZM47.187 63.111C45.4971 61.6506 43.6898 60.0888 41.599 58.8331C42.8182 58.5961 44.0213 58.1525 45.118 57.3304C46.7977 56.0715 48.0635 54.058 48.8764 50.9655C51.0033 49.5304 52.7517 49.2274 54.2869 49.3963C55.929 49.5769 57.4476 50.3035 59.1218 51.1521L59.4004 51.2937C60.9207 52.0671 62.6359 52.9396 64.4587 53.1692C65.8431 53.3435 67.2394 53.1493 68.6667 52.434V54.5209C68.6667 58.2896 68.0263 61.8817 66.3915 64.4914C64.8152 67.008 62.2468 68.7292 58.0016 68.7292C53.8714 68.7292 50.9258 66.3372 47.5121 63.3918L47.187 63.111ZM68.6667 49.3885V40.3126C68.6667 36.7505 67.4516 34.191 65.7298 32.521C63.993 30.8363 61.6609 29.9792 59.3051 29.9792C56.9492 29.9792 54.6171 30.8363 52.8802 32.521C51.1585 34.191 49.9434 36.7505 49.9434 40.3126C49.9434 43.1469 49.7988 45.5775 49.5159 47.657C51.3018 46.8635 52.976 46.6532 54.5693 46.8284C56.7416 47.0673 58.6541 48.0186 60.2898 48.8479L60.4065 48.9071C62.074 49.7527 63.4184 50.4345 64.7816 50.6061C65.9316 50.751 67.1763 50.5342 68.6667 49.3885Z" fill="white"/>
</svg>
