<svg width="64" height="64" viewBox="0 0 64 64" fill="none" xmlns="http://www.w3.org/2000/svg">
<rect width="64" height="64" rx="8" fill="#42BAE2"/>
<path d="M16 44V34.9893C16 30.7189 16.9978 27.3452 18.9934 24.8683C21.0171 22.3915 23.9543 20.7687 27.805 20V24.4413C24.9381 25.3523 23.0127 26.9181 22.029 29.1388C21.5231 30.306 21.3123 31.516 21.3966 32.7687H28.0158V44H16ZM47.7892 24.4413C44.9504 25.3238 43.0391 26.9181 42.0553 29.2242C41.4932 30.4484 41.2683 31.6299 41.3808 32.7687H48V44H35.9842V34.9893C35.9842 30.6619 37.0101 27.274 39.0619 24.8256C41.1419 22.3772 44.0509 20.7687 47.7892 20V24.4413Z" fill="white"/>
</svg>
