<svg width="80" height="80" viewBox="0 0 80 80" fill="none" xmlns="http://www.w3.org/2000/svg">
<circle cx="40" cy="40" r="40" fill="#161A32"/>
<path d="M21.6665 30.8346H26.9191C28.2514 30.8346 29.5291 30.1752 30.4712 29.0014C31.8166 27.325 33.8067 26.7396 35.6118 27.4893L38.1665 28.5503M21.6665 47.2738H24.6378C26.7635 47.2738 27.8263 47.2738 28.8314 47.557C28.8802 47.5708 28.929 47.5851 28.9775 47.5997C29.9763 47.9032 30.8606 48.473 32.6293 49.6129C36.0909 51.8439 37.8218 52.9595 39.7078 52.8236C39.7967 52.8172 39.8854 52.8086 39.974 52.7982C41.8508 52.5738 43.3217 51.1518 46.2636 48.3078L49.1665 45.5013" stroke="white" stroke-width="2.5" stroke-linecap="round"/>
<path d="M58.3333 31.2633H53.7192C51.7652 31.2633 50.3857 30.2016 48.9839 28.786C48.076 27.8692 46.9174 27.3288 45.6995 27.2544C44.3377 27.1712 42.7597 27.054 41.4373 27.4173C39.9654 27.8217 38.9935 28.9291 37.9654 30.0866L35.3123 33.0733C34.2292 34.2927 34.2292 36.2696 35.3123 37.4891C36.2472 38.5414 37.7118 38.7048 38.8118 37.879C39.6035 37.285 40.5029 36.3256 41.4357 36.0234C42.4855 35.6834 43.1367 36.4474 43.7316 37.2511L47.9853 42.9977C49.564 45.1302 50.3532 46.1967 51.4323 46.7656C52.5114 47.3346 53.7443 47.3346 56.2103 47.3346H58.3333" stroke="white" stroke-width="2.5" stroke-linecap="round"/>
</svg>
