<svg width="80" height="80" viewBox="0 0 80 80" fill="none" xmlns="http://www.w3.org/2000/svg">
<circle cx="40" cy="40" r="40" fill="#161A32"/>
<path d="M30.8333 53.334H28.3333C26.4924 53.334 25 51.8416 25 50.0007V26.6673C25 24.8264 26.4924 23.334 28.3333 23.334H51.6667C53.5076 23.334 55 24.8264 55 26.6673V50.0007C55 51.8416 53.5076 53.334 51.6667 53.334H49.1667M40 51.6673C42.7614 51.6673 45 49.4287 45 46.6673C45 43.9059 42.7614 41.6673 40 41.6673C37.2386 41.6673 35 43.9059 35 46.6673C35 49.4287 37.2386 51.6673 40 51.6673ZM40 51.6673L40.0357 51.667L34.7145 56.9883L30.0004 52.2742L35.0328 47.2419M40 51.6673L45.3214 56.9883L50.0354 52.2742L45.0031 47.2419M35 30.0007H45M31.6667 35.834H48.3333" stroke="white" stroke-width="2.5" stroke-linecap="round" stroke-linejoin="round"/>
</svg>
