<svg width="80" height="80" viewBox="0 0 80 80" fill="none" xmlns="http://www.w3.org/2000/svg">
<circle cx="40" cy="40" r="40" fill="#161A32"/>
<path d="M48.3333 44.1666V39.1573C48.3333 38.8582 48.3333 38.7086 48.2877 38.5766C48.2474 38.4598 48.1817 38.3535 48.0953 38.2652C47.9975 38.1654 47.8638 38.0985 47.5962 37.9648L39.9999 34.1666M26.6666 35.8333V47.1776C26.6666 47.7975 26.6666 48.1074 26.7633 48.3788C26.8488 48.6187 26.9881 48.8358 27.1705 49.0134C27.3769 49.2144 27.6587 49.3436 28.2222 49.6018L38.8888 54.4907C39.2976 54.678 39.5019 54.7717 39.7148 54.8087C39.9035 54.8414 40.0964 54.8414 40.285 54.8087C40.4979 54.7717 40.7023 54.678 41.111 54.4907L51.7777 49.6018C52.3411 49.3436 52.6229 49.2144 52.8293 49.0134C53.0117 48.8358 53.1511 48.6187 53.2366 48.3788C53.3333 48.1074 53.3333 47.7975 53.3333 47.1776V35.8333M23.3333 34.1666L39.4036 26.1314C39.6223 26.0221 39.7316 25.9674 39.8463 25.9459C39.9478 25.9269 40.052 25.9269 40.1536 25.9459C40.2682 25.9674 40.3776 26.0221 40.5962 26.1314L56.6666 34.1666L40.5962 42.2018C40.3776 42.3111 40.2682 42.3658 40.1536 42.3873C40.052 42.4063 39.9478 42.4063 39.8463 42.3873C39.7316 42.3658 39.6223 42.3111 39.4036 42.2018L23.3333 34.1666Z" stroke="white" stroke-width="2.5" stroke-linecap="round" stroke-linejoin="round"/>
</svg>
