<svg width="80" height="80" viewBox="0 0 80 80" fill="none" xmlns="http://www.w3.org/2000/svg">
<circle cx="40" cy="40" r="40" fill="#198CCE"/>
<path d="M48.3335 44.1666V39.1573C48.3335 38.8582 48.3335 38.7086 48.288 38.5766C48.2477 38.4598 48.1819 38.3535 48.0955 38.2652C47.9978 38.1654 47.864 38.0985 47.5964 37.9648L40.0002 34.1666M26.6668 35.8333V47.1776C26.6668 47.7975 26.6668 48.1074 26.7635 48.3788C26.849 48.6187 26.9883 48.8358 27.1708 49.0134C27.3772 49.2144 27.659 49.3436 28.2224 49.6018L38.8891 54.4907C39.2978 54.678 39.5022 54.7717 39.7151 54.8087C39.9037 54.8414 40.0966 54.8414 40.2853 54.8087C40.4982 54.7717 40.7025 54.678 41.1112 54.4907L51.7779 49.6018C52.3414 49.3436 52.6231 49.2144 52.8295 49.0134C53.012 48.8358 53.1513 48.6187 53.2368 48.3788C53.3335 48.1074 53.3335 47.7975 53.3335 47.1776V35.8333M23.3335 34.1666L39.4039 26.1314C39.6225 26.0221 39.7318 25.9674 39.8465 25.9459C39.9481 25.9269 40.0523 25.9269 40.1538 25.9459C40.2685 25.9674 40.3778 26.0221 40.5964 26.1314L56.6668 34.1666L40.5964 42.2018C40.3778 42.3111 40.2685 42.3658 40.1538 42.3873C40.0523 42.4063 39.9481 42.4063 39.8465 42.3873C39.7318 42.3658 39.6225 42.3111 39.4039 42.2018L23.3335 34.1666Z" stroke="white" stroke-width="2.5" stroke-linecap="round" stroke-linejoin="round"/>
</svg>
