<svg width="89" height="88" viewBox="0 0 89 88" fill="none" xmlns="http://www.w3.org/2000/svg">
<circle cx="43.5754" cy="43.5754" r="43.5754" transform="matrix(1 0 0 -1 0.924316 87.5762)" fill="#C8C8C8" fill-opacity="0.24"/>
<path d="M77.2044 44.131C77.2044 25.9963 62.5033 11.2952 44.3685 11.2952C26.2338 11.2952 11.5327 25.9963 11.5327 44.131C11.5327 62.2657 26.2338 76.9668 44.3685 76.9668C62.5033 76.9668 77.2044 62.2657 77.2044 44.131Z" fill="#25D366"/>
<path fill-rule="evenodd" clip-rule="evenodd" d="M55.7674 32.8995C52.9733 30.1054 49.2478 28.6152 45.336 28.6152C37.14 28.6152 30.4341 35.3211 30.4341 43.5172C30.4341 46.125 31.1792 48.7329 32.4831 50.9682L30.4341 58.4192L38.2576 56.3701C40.4929 57.4878 42.9145 58.2329 45.336 58.2329C53.5321 58.2329 60.238 51.527 60.238 43.3309C60.238 39.4192 58.5615 35.6937 55.7674 32.8995ZM45.336 55.8113C43.1007 55.8113 40.8655 55.2525 39.0027 54.1348L38.6301 53.9486L33.9733 55.2525L35.2772 50.7819L34.9047 50.2231C33.6007 48.1741 33.0419 45.9388 33.0419 43.7035C33.0419 36.9976 38.6302 31.4094 45.336 31.4094C48.689 31.4094 51.6694 32.7133 54.091 34.9486C56.5125 37.3701 57.6302 40.3505 57.6302 43.7035C57.6302 50.2231 52.2282 55.8113 45.336 55.8113ZM52.0419 46.4976C51.6694 46.3113 49.8067 45.3799 49.4341 45.3799C49.0616 45.1937 48.8752 45.1937 48.689 45.5662C48.5027 45.9388 47.7576 46.6839 47.5714 47.0564C47.3851 47.2427 47.1988 47.2427 46.8262 47.2427C46.4537 47.0564 45.3361 46.6839 43.8459 45.3799C42.7282 44.4486 41.9831 43.1446 41.7968 42.7721C41.6106 42.3996 41.7969 42.2133 41.9831 42.027C42.1694 41.8407 42.3557 41.6544 42.5419 41.4682C42.7282 41.2819 42.7282 41.0956 42.9145 40.9094C43.1008 40.7231 42.9145 40.5368 42.9145 40.3505C42.9145 40.1643 42.1694 38.3015 41.7968 37.5564C41.6106 36.9976 41.238 36.9976 41.0518 36.9976C40.8655 36.9976 40.6792 36.9976 40.3066 36.9976C40.1203 36.9976 39.7478 36.9976 39.3752 37.3701C39.0027 37.7427 38.0713 38.6741 38.0713 40.5368C38.0713 42.3995 39.3752 44.076 39.5615 44.4486C39.7478 44.6348 42.1694 48.5466 45.8948 50.0368C49.0615 51.3407 49.6204 50.9682 50.3655 50.9682C51.1106 50.9682 52.6007 50.0368 52.787 49.2917C53.1596 48.3603 53.1596 47.6152 52.9733 47.6152C52.787 46.6839 52.4145 46.6839 52.0419 46.4976Z" fill="white"/>
</svg>
