<svg width="234" height="40" viewBox="0 0 234 40" fill="none" xmlns="http://www.w3.org/2000/svg">
<path d="M76.104 10.7285L74.2501 20.4448H82.4154L84.2693 10.7285H88.7012L84.1512 34.634H79.7193L81.5989 24.6558H73.4335L71.554 34.634H67.1221L71.6721 10.7285H76.104Z" fill="white"/>
<path d="M93.1847 34.634H88.5474L93.0974 10.7285H97.7347L93.1847 34.634Z" fill="white"/>
<path d="M102.151 10.7285H111.826C115.185 10.7285 117.501 11.7453 118.775 13.779C119.493 14.9858 119.858 16.6137 119.858 18.6679C119.858 19.9621 119.709 21.4411 119.411 23.1101C118.965 25.3543 118.338 27.2236 117.532 28.7129C116.643 30.3511 115.591 31.6195 114.373 32.5285C113.408 33.268 112.417 33.8021 111.41 34.1205C110.373 34.4646 109.033 34.634 107.394 34.634H97.6011L102.151 10.7285ZM110.922 14.9088H105.766L102.819 30.4589H107.975C109.942 30.4589 111.405 29.8889 112.376 28.7539C113.326 27.6498 114.086 25.6264 114.656 22.6838C114.933 21.1483 115.072 19.8953 115.072 18.9196C115.072 18.3906 115.041 17.9592 114.985 17.6254C114.923 17.2813 114.825 16.9424 114.687 16.5983C114.153 15.4685 112.9 14.9088 110.922 14.9088Z" fill="white"/>
<path d="M124.85 10.7278H135.799C138.325 10.7278 140.082 11.3132 141.057 12.4841C141.699 13.2801 142.023 14.3791 142.023 15.7811C142.023 16.1457 142.002 16.5308 141.961 16.9417C141.899 17.3731 141.853 17.6966 141.812 17.9174C141.448 19.7302 140.79 21.2092 139.84 22.3596C138.88 23.5407 137.678 24.3059 136.225 24.65L139.619 34.6282H134.612L131.767 25.2611H126.524L124.732 34.6282H120.3L124.85 10.7227V10.7278ZM133.914 15.021H128.46L127.305 21.0244H132.774C134.248 21.0244 135.316 20.783 135.989 20.2951C136.661 19.8535 137.093 19.0832 137.293 17.9893C137.355 17.6555 137.38 17.3422 137.38 17.0444C137.38 16.4795 137.216 16.0276 136.892 15.6835C136.369 15.2418 135.377 15.021 133.914 15.021Z" fill="white"/>
<path d="M143.322 22.453C144.113 18.3292 145.561 15.2736 147.661 13.2862C149.767 11.2834 152.612 10.2871 156.196 10.2871C159.781 10.2871 162.246 11.2988 163.561 13.3222C164.393 14.5803 164.803 16.2904 164.803 18.4473C164.803 19.1201 164.773 19.7928 164.716 20.4604C164.654 21.128 164.547 21.8727 164.393 22.6892C163.581 26.9208 162.128 30.0586 160.022 32.0871C157.896 34.1207 155.056 35.1375 151.487 35.1375C147.918 35.1375 145.345 34.1105 144.051 32.0511C143.24 30.757 142.834 29.0623 142.834 26.9619C142.834 25.7551 142.998 24.2555 143.322 22.453ZM155.426 14.3595C153.552 14.3595 151.985 15.0271 150.727 16.3675C149.572 17.7284 148.724 19.7671 148.18 22.4838C147.913 23.8087 147.779 25.031 147.779 26.1454C147.779 27.2598 147.954 28.1893 148.298 28.9647C148.971 30.3256 150.291 31.0035 152.268 31.0035C154.245 31.0035 155.765 30.3256 156.921 28.9647C157.501 28.3023 158.019 27.4395 158.461 26.3765C158.908 25.3134 159.273 24.0809 159.56 22.6789C159.776 21.5183 159.884 20.4091 159.884 19.346C159.884 18.1084 159.689 17.1224 159.303 16.3932C158.661 15.0323 157.367 14.3544 155.421 14.3544L155.426 14.3595Z" fill="white"/>
<path d="M169.698 10.7285H176.215L178.125 29.0672L186.984 10.7285H193.49L188.925 34.634H184.601L188.483 16.018L179.522 34.634H174.823L172.825 15.8177L169.672 34.634H165.153L169.703 10.7285H169.698Z" fill="white"/>
<path d="M205.743 14.9088C204.192 14.9088 202.918 15.3504 201.922 16.2337C200.916 17.1376 200.181 18.5447 199.714 20.4448L212.024 20.4756L211.238 24.6199H198.897C198.81 25.0718 198.743 25.4673 198.702 25.8062C198.661 26.1451 198.641 26.5046 198.641 26.8898C198.641 27.8398 198.826 28.5742 199.19 29.0929C199.791 29.9967 200.998 30.4538 202.806 30.4538H210.108L209.322 34.634H201.794C200.926 34.634 200.186 34.6032 199.586 34.5364C198.974 34.4594 198.435 34.331 197.973 34.1564C197.105 33.838 196.314 33.2937 195.6 32.5336C194.712 31.5836 194.147 30.31 193.911 28.718C193.824 28.1325 193.777 27.696 193.777 27.4085C193.757 27.1311 193.747 26.9154 193.747 26.7614C193.747 25.6008 193.88 24.3837 194.147 23.1152C194.959 18.8939 196.366 15.7715 198.368 13.7482C200.346 11.7351 203.047 10.7285 206.472 10.7285H213.867L213.051 14.9088H205.733H205.743Z" fill="white"/>
<path d="M225.653 14.8427C223.815 14.8427 222.372 15.4898 221.329 16.7839C220.271 18.0678 219.455 20.2504 218.87 23.3316C218.623 24.5487 218.5 25.5861 218.5 26.4488C218.5 27.4451 218.664 28.2514 218.988 28.8676C219.511 29.9307 220.744 30.4596 222.69 30.4596H229.993L229.207 34.6399H221.679C220.811 34.6399 220.071 34.6091 219.47 34.5423C218.859 34.4653 218.32 34.3369 217.858 34.1623C216.99 33.8439 216.199 33.2995 215.485 32.5395C214.597 31.5894 214.032 30.3158 213.796 28.7238C213.708 28.1384 213.662 27.7019 213.662 27.4143C213.642 27.137 213.631 26.9213 213.631 26.7672C213.631 25.6066 213.765 24.3895 214.032 23.1211C214.843 18.8997 216.25 15.7774 218.253 13.754C220.23 11.7409 222.932 10.7344 226.357 10.7344H233.752L232.966 14.8479H225.648L225.653 14.8427Z" fill="white"/>
<path d="M30.0183 0.00513545C30.0183 0.00513545 25.5402 22.9041 20.0299 27.8855C14.5144 32.872 7.55588 31.5214 3.25751 26.766C-1.04086 22.0105 -1.37466 15.9969 4.00215 11.3339C10.1904 5.96739 30.8605 0.436513 30.0183 0V0.00513545Z" fill="white"/>
<path d="M28.5854 40.0009C28.5854 40.0009 32.3086 16.9684 37.6597 11.8073C43.0057 6.6462 50.0105 7.76572 54.4629 12.3774C58.9154 16.989 59.4443 22.9872 54.2216 27.8248C48.2131 33.3916 27.7329 39.5952 28.5854 40.0009Z" fill="white"/>
</svg>
