<svg width="80" height="80" viewBox="0 0 80 80" fill="none" xmlns="http://www.w3.org/2000/svg">
<circle cx="40" cy="40" r="40" fill="#222A51"/>
<path d="M33.1144 45.7672L31.6667 56.6673L39.314 52.0789C39.5634 51.9293 39.6881 51.8544 39.8213 51.8252C39.939 51.7993 40.061 51.7993 40.1787 51.8252C40.3119 51.8544 40.4366 51.9293 40.686 52.0789L48.3333 56.6673L46.8865 45.7625M47.3765 27.0821C47.6339 27.7046 48.1279 28.1995 48.7501 28.4578L50.9315 29.3615C51.5541 29.6193 52.0487 30.114 52.3066 30.7366C52.5645 31.3591 52.5645 32.0587 52.3066 32.6812L51.4036 34.8612C51.1457 35.4841 51.1453 36.1843 51.4045 36.8069L52.3058 38.9862C52.4337 39.2946 52.4995 39.6251 52.4996 39.9589C52.4996 40.2927 52.4339 40.6233 52.3062 40.9317C52.1784 41.2401 51.9912 41.5203 51.7551 41.7563C51.519 41.9923 51.2388 42.1794 50.9304 42.3071L48.7504 43.2101C48.1279 43.4675 47.6331 43.9616 47.3748 44.5837L46.4712 46.7653C46.2133 47.3878 45.7187 47.8825 45.0961 48.1404C44.4736 48.3982 43.7741 48.3982 43.1515 48.1404L40.9716 47.2374C40.349 46.9801 39.6498 46.9807 39.0276 47.2388L36.8461 48.1412C36.2239 48.3985 35.525 48.3982 34.903 48.1406C34.2809 47.8829 33.7866 47.3888 33.5285 46.7669L32.6246 44.5847C32.3673 43.9622 31.8732 43.4674 31.2511 43.209L29.0696 42.3054C28.4473 42.0476 27.9528 41.5533 27.6949 40.9311C27.4369 40.3088 27.4365 39.6096 27.6939 38.9872L28.5968 36.8072C28.8541 36.1846 28.8535 35.4853 28.5954 34.8631L27.6937 32.68C27.5659 32.3716 27.5001 32.0411 27.5 31.7073C27.4999 31.3735 27.5657 31.0429 27.6934 30.7345C27.8211 30.4261 28.0084 30.1459 28.2445 29.9099C28.4805 29.6739 28.7608 29.4868 29.0692 29.3591L31.2491 28.4561C31.8711 28.1989 32.3656 27.7055 32.6241 27.0841L33.5277 24.9025C33.7856 24.2799 34.2802 23.7853 34.9028 23.5274C35.5253 23.2695 36.2248 23.2695 36.8474 23.5274L39.0273 24.4304C39.6499 24.6876 40.3491 24.6871 40.9713 24.4289L43.1537 23.5288C43.7762 23.2711 44.4755 23.2711 45.098 23.5289C45.7204 23.7868 46.215 24.2813 46.4729 24.9037L47.3767 27.0859L47.3765 27.0821Z" stroke="white" stroke-width="2.5" stroke-linecap="round" stroke-linejoin="round"/>
</svg>
