<svg width="328" height="56" viewBox="0 0 328 56" fill="none" xmlns="http://www.w3.org/2000/svg">
<path d="M106.559 15.0137L103.963 28.6182H115.396L117.992 15.0137H124.198L117.827 48.4857H111.621L114.253 34.5144H102.82L100.188 48.4857H93.9829L100.354 15.0137H106.559Z" fill="#232B52"/>
<path d="M130.475 48.4857H123.982L130.353 15.0137H136.846L130.475 48.4857Z" fill="#232B52"/>
<path d="M143.03 15.0137H156.577C161.279 15.0137 164.522 16.4374 166.305 19.2849C167.312 20.9746 167.823 23.254 167.823 26.1303C167.823 27.9423 167.614 30.0132 167.197 32.3501C166.571 35.4924 165.694 38.1097 164.565 40.195C163.321 42.4888 161.847 44.2648 160.143 45.5376C158.791 46.573 157.403 47.3208 155.994 47.7666C154.542 48.2484 152.665 48.4857 150.371 48.4857H136.659L143.03 15.0137ZM155.311 20.8668H148.092L143.964 42.6398H151.184C153.938 42.6398 155.987 41.8416 157.346 40.2525C158.676 38.7065 159.74 35.8735 160.539 31.7533C160.927 29.6033 161.121 27.8488 161.121 26.4826C161.121 25.742 161.078 25.138 160.999 24.6706C160.912 24.1888 160.776 23.7142 160.582 23.2325C159.834 21.6506 158.079 20.8668 155.311 20.8668Z" fill="#232B52"/>
<path d="M174.812 15.013H190.142C193.68 15.013 196.139 15.8328 197.505 17.4722C198.404 18.5868 198.857 20.1255 198.857 22.0886C198.857 22.5991 198.828 23.1384 198.771 23.7136C198.684 24.3176 198.62 24.7706 198.562 25.0798C198.052 27.6181 197.131 29.689 195.801 31.2996C194.456 32.9535 192.774 34.0249 190.739 34.5066L195.492 48.4779H188.481L184.497 35.3623H177.156L174.646 48.4779H168.441L174.812 15.0059V15.013ZM187.503 21.0243H179.867L178.249 29.4301H185.907C187.97 29.4301 189.466 29.0921 190.408 28.409C191.35 27.7907 191.954 26.7121 192.234 25.1805C192.321 24.7131 192.357 24.2745 192.357 23.8574C192.357 23.0665 192.127 22.4337 191.674 21.9519C190.94 21.3335 189.552 21.0243 187.503 21.0243Z" fill="#232B52"/>
<path d="M200.676 31.4289C201.784 25.6549 203.811 21.3766 206.752 18.5938C209.7 15.7895 213.684 14.3945 218.703 14.3945C223.722 14.3945 227.173 15.8111 229.014 18.6441C230.179 20.4058 230.754 22.8003 230.754 25.8203C230.754 26.7623 230.711 27.7042 230.632 28.639C230.546 29.5738 230.395 30.6164 230.179 31.7597C229.043 37.6847 227.008 42.0781 224.06 44.9184C221.083 47.7659 217.107 49.1896 212.109 49.1896C207.112 49.1896 203.509 47.7515 201.697 44.8681C200.561 43.0561 199.993 40.6832 199.993 37.7422C199.993 36.0525 200.223 33.9528 200.676 31.4289ZM217.624 20.0966C215 20.0966 212.807 21.0314 211.045 22.9081C209.427 24.8136 208.241 27.6683 207.479 31.4721C207.105 33.3272 206.918 35.0386 206.918 36.5989C206.918 38.1593 207.162 39.4608 207.644 40.5466C208.586 42.4521 210.434 43.4012 213.202 43.4012C215.971 43.4012 218.099 42.4521 219.717 40.5466C220.529 39.619 221.256 38.411 221.874 36.9225C222.5 35.4341 223.01 33.7083 223.413 31.7453C223.715 30.1203 223.866 28.5671 223.866 27.0787C223.866 25.3457 223.593 23.9652 223.053 22.9441C222.154 21.0386 220.342 20.0894 217.617 20.0894L217.624 20.0966Z" fill="#232B52"/>
<path d="M237.607 15.0137H246.732L249.406 40.6911L261.81 15.0137H270.921L264.528 48.4857H258.474L263.91 22.4199L251.362 48.4857H244.783L241.986 22.1395L237.571 48.4857H231.243L237.614 15.0137H237.607Z" fill="#232B52"/>
<path d="M288.077 20.8668C285.906 20.8668 284.123 21.4852 282.728 22.7219C281.318 23.9875 280.29 25.9577 279.636 28.6182L296.871 28.6613L295.771 34.4641H278.492C278.37 35.0969 278.277 35.6506 278.219 36.1251C278.162 36.5997 278.133 37.103 278.133 37.6423C278.133 38.9726 278.392 40.0008 278.902 40.7271C279.744 41.9926 281.433 42.6326 283.964 42.6326H294.189L293.089 48.4857H282.548C281.333 48.4857 280.297 48.4425 279.456 48.3491C278.6 48.2412 277.845 48.0614 277.198 47.817C275.983 47.3711 274.876 46.6089 273.876 45.5447C272.632 44.2145 271.841 42.4312 271.51 40.2022C271.388 39.3824 271.323 38.7713 271.323 38.3686C271.295 37.9803 271.28 37.6783 271.28 37.4626C271.28 35.8375 271.467 34.1333 271.841 32.3573C272.977 26.4466 274.947 22.0748 277.752 19.2417C280.52 16.423 284.302 15.0137 289.098 15.0137H299.453L298.31 20.8668H288.063H288.077Z" fill="#232B52"/>
<path d="M315.955 20.772C313.381 20.772 311.36 21.678 309.901 23.49C308.419 25.2876 307.276 28.3436 306.456 32.6579C306.111 34.3621 305.939 35.8146 305.939 37.0226C305.939 38.4176 306.169 39.5465 306.622 40.4094C307.355 41.8978 309.081 42.6384 311.806 42.6384H322.031L320.931 48.4915H310.39C309.174 48.4915 308.139 48.4484 307.298 48.3549C306.442 48.2471 305.687 48.0673 305.04 47.8228C303.825 47.377 302.717 46.6148 301.718 45.5506C300.474 44.2204 299.683 42.4371 299.352 40.208C299.23 39.3883 299.165 38.7771 299.165 38.3744C299.136 37.9861 299.122 37.6841 299.122 37.4684C299.122 35.8434 299.309 34.1392 299.683 32.3631C300.819 26.4525 302.789 22.0807 305.594 19.2476C308.362 16.4289 312.144 15.0195 316.94 15.0195H327.295L326.194 20.7792H315.948L315.955 20.772Z" fill="#232B52"/>
<path d="M42.0311 0C42.0311 0 35.7609 32.0627 28.0454 39.0375C20.3228 46.0195 10.5796 44.1284 4.5611 37.47C-1.45739 30.8115 -1.92477 22.3914 5.60373 15.8624C14.2612 8.34823 43.2103 0.604006 42.0311 0Z" fill="#0E7EC3"/>
<path d="M40.025 56.0003C40.025 56.0003 45.2381 23.7507 52.7307 16.5242C60.216 9.29772 70.0239 10.8653 76.2581 17.3224C82.4923 23.7795 83.233 32.178 75.9202 38.9515C67.5072 46.7461 38.8313 55.4323 40.025 56.0003Z" fill="#232B52"/>
</svg>
