<svg width="20" height="20" viewBox="0 0 20 20" fill="none" xmlns="http://www.w3.org/2000/svg">
<path fill-rule="evenodd" clip-rule="evenodd" d="M3.75 2.70312C3.05964 2.70312 2.5 3.26277 2.5 3.95312V16.4531C2.5 17.1435 3.05964 17.7031 3.75 17.7031H16.25C16.9403 17.7031 17.5 17.1435 17.5 16.4531V3.95312C17.5 3.26277 16.9403 2.70312 16.25 2.70312H3.75ZM7.10063 6.03872C7.10532 6.8356 6.50884 7.32662 5.80102 7.3231C5.13422 7.31958 4.55297 6.78872 4.55649 6.0399C4.56001 5.3356 5.11665 4.76958 5.8397 4.78599C6.57329 4.8024 7.10532 5.34029 7.10063 6.03872ZM10.2331 8.33792H8.13309H8.13192V15.4711H10.3514V15.3047C10.3514 14.9881 10.3512 14.6715 10.3509 14.3547C10.3502 13.5099 10.3495 12.6641 10.3538 11.8195C10.355 11.6145 10.3643 11.4012 10.4171 11.2055C10.6151 10.4742 11.2726 10.002 12.0062 10.118C12.4773 10.1918 12.7889 10.4649 12.9202 10.909C13.0011 11.1867 13.0374 11.4855 13.0409 11.775C13.0504 12.648 13.0491 13.521 13.0477 14.3941C13.0472 14.7023 13.0468 15.0106 13.0468 15.3188V15.47H15.2733V15.2989C15.2733 14.9222 15.2732 14.5456 15.2729 14.169C15.2725 13.2278 15.272 12.2865 15.2745 11.345C15.2757 10.9195 15.23 10.5 15.1257 10.0887C14.9698 9.47696 14.6476 8.97071 14.1237 8.60512C13.7522 8.34495 13.3444 8.17738 12.8886 8.15863C12.8367 8.15647 12.7843 8.15364 12.7317 8.1508C12.4987 8.1382 12.2618 8.1254 12.0389 8.17034C11.4014 8.29808 10.8413 8.58988 10.4182 9.10429C10.3691 9.16329 10.321 9.22321 10.2492 9.31262L10.2331 9.33287V8.33792ZM4.7347 15.4735H6.94368V8.34257H4.7347V15.4735Z" fill="white"/>
</svg>
