<svg width="40" height="40" viewBox="0 0 33 32" fill="none" xmlns="http://www.w3.org/2000/svg">
<circle cx="16.3076" cy="16" r="16" fill="#42BAE2"/>
<path d="M16.3076 12.207C15.5576 12.207 14.8245 12.4294 14.2009 12.8461C13.5773 13.2627 13.0913 13.855 12.8043 14.5478C12.5173 15.2407 12.4422 16.0032 12.5885 16.7387C12.7348 17.4743 13.0959 18.1499 13.6263 18.6802C14.1566 19.2106 14.8322 19.5717 15.5678 19.718C16.3033 19.8643 17.0658 19.7892 17.7587 19.5022C18.4515 19.2152 19.0438 18.7292 19.4604 18.1056C19.8771 17.482 20.0995 16.7489 20.0995 15.999C20.0995 15.501 20.0014 15.0079 19.8109 14.5478C19.6203 14.0878 19.341 13.6698 18.9889 13.3176C18.6368 12.9655 18.2187 12.6862 17.7587 12.4957C17.2986 12.3051 16.8055 12.207 16.3076 12.207ZM16.3076 18.4607C15.8207 18.4607 15.3447 18.3163 14.9399 18.0458C14.5351 17.7753 14.2195 17.3908 14.0332 16.941C13.8469 16.4912 13.7981 15.9962 13.8931 15.5187C13.9881 15.0411 14.2226 14.6025 14.5669 14.2582C14.9111 13.9139 15.3498 13.6795 15.8273 13.5845C16.3048 13.4895 16.7998 13.5383 17.2496 13.7246C17.6995 13.9109 18.0839 14.2264 18.3544 14.6313C18.6249 15.0361 18.7693 15.5121 18.7693 15.999C18.7693 16.3222 18.7057 16.6424 18.582 16.9411C18.4583 17.2397 18.277 17.5111 18.0484 17.7397C17.8198 17.9683 17.5484 18.1497 17.2497 18.2734C16.951 18.3971 16.6308 18.4607 16.3076 18.4607Z" fill="white"/>
<path d="M23.6474 12.9553C23.6353 12.3427 23.5193 11.7366 23.3044 11.1629C23.1187 10.6702 22.828 10.2239 22.4526 9.85472C22.084 9.47895 21.6378 9.18824 21.1451 9.00293C20.5713 8.78787 19.9652 8.67189 19.3526 8.65994C18.5652 8.6241 18.3135 8.61523 16.3081 8.61523C14.3027 8.61523 14.0508 8.62355 13.2629 8.65994C12.6504 8.67205 12.0443 8.78802 11.4705 9.00293C10.9777 9.18841 10.5313 9.47909 10.1623 9.85472C9.78636 10.2234 9.49564 10.6699 9.3106 11.1629C9.09569 11.7366 8.97972 12.3427 8.96761 12.9553C8.93121 13.7427 8.92285 13.9944 8.92285 15.9998C8.92285 18.0053 8.93121 18.257 8.9676 19.0444C8.9797 19.6569 9.09569 20.263 9.3106 20.8368C9.4957 21.3298 9.78641 21.7763 10.1623 22.145C10.5315 22.5204 10.9779 22.811 11.4705 22.9967C12.0443 23.2116 12.6504 23.3275 13.2629 23.3397C14.0508 23.3755 14.3021 23.3845 16.3075 23.3845C18.3129 23.3845 18.5647 23.3761 19.352 23.3397C19.9646 23.3276 20.5707 23.2116 21.1445 22.9967C21.6351 22.807 22.0807 22.5169 22.4526 22.145C22.8246 21.773 23.1147 21.3275 23.3044 20.8368C23.5196 20.2631 23.6356 19.657 23.6474 19.0444C23.6832 18.2564 23.6915 18.0053 23.6915 15.9998C23.6915 13.9944 23.6832 13.7427 23.6474 12.9553ZM22.3189 18.9842C22.3132 19.4524 22.2273 19.9163 22.0649 20.3555C21.942 20.674 21.7537 20.9632 21.5123 21.2045C21.2709 21.4458 20.9816 21.6339 20.6631 21.7567C20.2239 21.9195 19.76 22.0054 19.2917 22.0107C18.5133 22.0465 18.2795 22.0537 16.3074 22.0537C14.3354 22.0537 14.1022 22.0465 13.324 22.0107C12.8557 22.0054 12.3918 21.9194 11.9527 21.7567C11.6319 21.6382 11.3417 21.4494 11.1033 21.2043C10.8578 20.9664 10.669 20.6763 10.5509 20.3555C10.3881 19.9164 10.3021 19.4525 10.2969 18.9842C10.261 18.2058 10.2539 17.972 10.2539 15.9999C10.2539 14.0278 10.2617 13.7947 10.2969 13.0156C10.3028 12.5474 10.3887 12.0836 10.5509 11.6443C10.6694 11.3236 10.8581 11.0333 11.1033 10.7949C11.3413 10.5493 11.6316 10.3605 11.9527 10.2425C12.3918 10.0797 12.8557 9.9938 13.324 9.9885C14.1024 9.95269 14.3362 9.94556 16.3074 9.94556C18.2786 9.94556 18.5127 9.9533 19.2917 9.9885C19.76 9.9944 20.2238 10.0803 20.6631 10.2425C20.9817 10.3653 21.2711 10.5535 21.5125 10.7949C21.7539 11.0364 21.9421 11.3257 22.0649 11.6443C22.2277 12.0834 22.3136 12.5473 22.3189 13.0156C22.3547 13.7947 22.3619 14.0279 22.3619 15.9999C22.3619 17.9719 22.3547 18.2051 22.3189 18.9842Z" fill="white"/>
<path d="M20.2494 11.1719C20.0145 11.1719 19.7888 11.2653 19.6227 11.4315C19.4566 11.5976 19.3633 11.823 19.3633 12.058C19.3633 12.2929 19.4567 12.5183 19.6228 12.6844C19.789 12.8505 20.0143 12.9439 20.2493 12.9439C20.4842 12.9439 20.7096 12.8505 20.8757 12.6844C21.0419 12.5183 21.1353 12.2929 21.1353 12.058C21.1353 11.823 21.042 11.5976 20.8759 11.4315C20.7097 11.2653 20.4844 11.1719 20.2494 11.1719Z" fill="white"/>
</svg>
