<svg width="40" height="40" viewBox="0 0 32 32" fill="none" xmlns="http://www.w3.org/2000/svg">
<circle cx="16" cy="16" r="16" fill="#42BAE2"/>
<path d="M10.7213 12.2982H10.7C10.4673 12.3122 10.2343 12.2781 10.0154 12.198C9.79651 12.118 9.59648 11.9936 9.4278 11.8328C9.25912 11.6719 9.12541 11.4781 9.03503 11.2632C8.94464 11.0484 8.89952 10.8172 8.90248 10.5842C8.90544 10.3511 8.95641 10.1212 9.05222 9.90871C9.14803 9.69625 9.28662 9.50581 9.45933 9.3493C9.63203 9.19279 9.83516 9.07357 10.056 8.99908C10.2769 8.92459 10.5107 8.89644 10.7429 8.91637C10.9763 8.89947 11.2106 8.93103 11.4312 9.00908C11.6518 9.08712 11.8538 9.20996 12.0247 9.36986C12.1955 9.52977 12.3313 9.72329 12.4238 9.93824C12.5162 10.1532 12.5631 10.385 12.5616 10.6189C12.5601 10.8529 12.5102 11.084 12.4151 11.2978C12.3199 11.5116 12.1816 11.7033 12.0088 11.8611C11.8359 12.0188 11.6323 12.139 11.4108 12.2142C11.1892 12.2895 10.9545 12.318 10.7213 12.2982Z" fill="white"/>
<path d="M9.21484 14.5742H12.2499V23.6792H9.21484V14.5742Z" fill="white"/>
<path d="M20.2161 14.5742C19.7047 14.5756 19.2001 14.6926 18.7403 14.9164C18.2804 15.1402 17.8771 15.4651 17.5604 15.8667V14.5742H14.5254V23.6792H17.5604V19.5061C17.5604 19.1036 17.7203 18.7176 18.0049 18.4331C18.2895 18.1485 18.6755 17.9886 19.078 17.9886C19.4804 17.9886 19.8664 18.1485 20.151 18.4331C20.4356 18.7176 20.5955 19.1036 20.5955 19.5061V23.6792H23.6305V17.9886C23.6305 17.5402 23.5422 17.0962 23.3706 16.682C23.199 16.2677 22.9475 15.8913 22.6305 15.5743C22.3134 15.2572 21.937 15.0057 21.5227 14.8341C21.1085 14.6625 20.6645 14.5742 20.2161 14.5742Z" fill="white"/>
</svg>
