<svg width="96" height="96" viewBox="0 0 96 96" fill="none" xmlns="http://www.w3.org/2000/svg">
<circle cx="48" cy="48" r="48" fill="#42BAE2"/>
<path fill-rule="evenodd" clip-rule="evenodd" d="M40.2503 56.6632C39.0595 57.156 37.7125 57.5083 35.973 57.5083C33.6016 57.5083 32.8178 59.405 31.9848 61.4208C31.0404 63.7065 30.0326 66.1452 26.5756 66.1452C20.0698 66.1452 21.675 46.1243 25.5501 38.3743C29.4251 30.6243 34.7278 29.9785 45.571 29.9785C52.2131 29.9785 53.8974 30.9912 55.2024 31.776C56.0279 32.2724 56.7015 32.6775 58.382 32.6775C60.1168 32.6775 62.5457 32.1592 64.9745 31.641C68.6178 30.8637 72.261 30.0865 73.5621 31.0581C75.7307 32.6775 69.225 44.553 62.7191 44.553C59.3705 44.553 57.3625 46.9536 55.4135 49.2835C53.5759 51.4802 51.791 53.6141 48.9846 53.6141C46.2823 53.6141 44.527 54.4644 42.8337 55.3704V68.0827H40.2503V56.6632ZM28.2287 62.9908C27.9445 63.2819 27.5359 63.5619 26.5756 63.5619H26.5726C26.5047 63.5619 26.4521 63.5619 26.3175 63.4292C26.1252 63.2398 25.8395 62.824 25.5624 62.0374C25.0049 60.4549 24.7184 58.0591 24.7532 55.1973C24.8228 49.4587 26.156 42.939 27.8607 39.5296C29.56 36.131 31.3935 34.5681 33.8161 33.703C36.4929 32.7473 40.0785 32.5618 45.571 32.5618C45.9799 32.5618 46.367 32.5659 46.7335 32.5733C45.5928 34.0318 44.9712 35.6341 44.6377 37.0234C44.3705 38.1373 44.2819 39.1362 44.2597 39.8583C44.2484 40.2207 44.254 40.5167 44.2626 40.7272C44.267 40.8325 44.2722 40.9166 44.2766 40.9772L44.2803 41.0276L44.2823 41.0502L44.2843 41.0729L44.2851 41.0807L44.2855 41.085C44.2855 41.0856 44.2856 41.0862 45.5708 40.9577C46.8562 40.8292 46.8562 40.8295 46.8562 40.8301L46.8532 40.7913C46.8506 40.7558 46.847 40.6981 46.8438 40.6204C46.8373 40.465 46.8327 40.2314 46.8417 39.9378C46.8599 39.348 46.9328 38.5305 47.1498 37.6262C47.5409 35.9964 48.3794 34.1554 50.1504 32.7989C51.9336 33.027 52.7464 33.3729 53.2298 33.6228C53.4464 33.7348 53.6295 33.8449 53.8777 33.9938L53.9522 34.0386C54.2181 34.1981 54.5811 34.4145 55.0071 34.608C55.9522 35.0371 56.9915 35.2608 58.382 35.2608C59.7275 35.2608 61.2873 35.0161 62.7634 34.7342C63.6514 34.5644 64.6267 34.3566 65.5678 34.156C66.1698 34.0278 66.7584 33.9023 67.3008 33.7919C68.7835 33.4899 70.056 33.2697 71.0504 33.206C71.1002 33.2028 71.1485 33.2001 71.1952 33.1977C70.8707 34.2175 70.2056 35.5735 69.2612 36.9547C68.2911 38.3732 67.1162 39.6866 65.8949 40.6191C64.6504 41.5697 63.5668 41.9697 62.7191 41.9697C58.1675 41.9697 55.4656 45.1969 53.6771 47.3332L53.5079 47.5352C52.5469 48.6828 51.8178 49.5532 51.031 50.1896C50.2938 50.7857 49.6747 51.0307 48.9846 51.0307C46.3509 51.0307 44.411 51.7115 42.8337 52.4677V46.7702C42.8337 46.2596 43.0855 45.7836 43.5228 45.401C43.9844 44.9971 44.5002 44.8327 44.7712 44.8327V42.2493C43.7505 42.2493 42.6517 42.7306 41.8216 43.4569C40.9901 44.1845 40.2888 45.2826 40.2519 46.6563H33.6721C30.5859 46.6563 26.8826 48.0144 30.5859 50.7299C33.2724 52.6997 37.9072 51.1321 40.2503 50.1226V53.816C38.9342 54.4823 37.7383 54.925 35.973 54.925C33.7767 54.925 32.2424 55.948 31.2213 57.3035C30.4705 58.3002 29.9532 59.5628 29.5829 60.4668C29.5763 60.4829 29.5697 60.499 29.5632 60.5149C29.5177 60.6259 29.4745 60.7312 29.4333 60.8295C28.976 61.9223 28.6367 62.5729 28.2287 62.9908Z" fill="white"/>
</svg>
