<svg width="97" height="96" viewBox="0 0 97 96" fill="none" xmlns="http://www.w3.org/2000/svg">
<circle cx="48.667" cy="48" r="48" fill="#42BAE2"/>
<path fill-rule="evenodd" clip-rule="evenodd" d="M45.7435 30.0653C45.458 29.906 45.2136 29.8716 44.9173 29.9737C44.8595 29.9936 44.8063 30.0154 44.7574 30.0394L44.7572 30.0408L44.753 30.0432L44.7346 30.0535L44.658 30.0969C44.6519 30.1004 44.6456 30.1039 44.639 30.1076C44.4261 30.2511 44.3141 30.4592 44.2448 30.7715C44.1299 31.2882 44.1786 31.9692 44.2994 32.7349C44.4371 33.608 44.8974 34.8403 45.5574 35.668C45.8816 36.0747 46.189 36.3025 46.445 36.3984C46.6579 36.4782 46.9069 36.4983 47.2638 36.3307C47.8029 36.0777 48.1367 35.4583 47.9982 34.2136C47.8635 33.0026 47.3008 31.7257 46.7895 31.0622C46.4272 30.5921 46.074 30.2497 45.7435 30.0653ZM43.2843 27.9064C43.5186 27.7592 43.7818 27.6324 44.0767 27.5309C45.175 27.1529 46.1817 27.3516 47.0021 27.8093C47.7772 28.2417 48.3846 28.8999 48.8355 29.4851C49.6426 30.5323 50.3801 32.2584 50.5658 33.928C50.7008 35.1414 50.5565 36.6314 49.6317 37.7148C52.0077 37.6355 53.9002 37.8717 55.7109 38.1016L55.7739 38.1096C57.6601 38.3492 59.4583 38.5776 61.7633 38.4913C62.8351 38.4513 63.7498 38.2363 64.7404 38.0037C65.0105 37.9402 65.2863 37.8754 65.5724 37.8125C66.8593 37.5294 68.3006 37.307 69.913 37.7826C70.452 37.9416 70.9303 38.226 71.2898 38.6573C71.6462 39.085 71.8193 39.5768 71.8839 40.0456C72.0063 40.9328 71.7598 41.8675 71.4767 42.6234C70.8953 44.1758 69.8705 45.7054 69.4967 46.2334C68.2185 48.0393 66.718 49.0636 65.0937 49.5954C63.5123 50.113 61.886 50.138 60.4095 50.0861C59.9762 50.0708 59.5623 50.0499 59.1622 50.0296C58.1303 49.9772 57.191 49.9297 56.2531 49.998C55.6262 50.0436 55.0441 50.1407 54.501 50.3163C54.8032 50.3736 55.1043 50.4488 55.4044 50.5418C57.8511 51.2993 60.0071 53.1746 62.0352 55.6511C62.3362 55.9585 62.5705 56.2852 62.7456 56.6653C62.9229 57.0505 63.0144 57.4384 63.0818 57.8043C63.2664 58.8063 62.9828 59.8189 62.5609 60.6592C62.1293 61.5182 61.4889 62.3294 60.7589 62.9849C60.0341 63.6358 59.1564 64.1904 58.2206 64.4547C57.2703 64.7231 56.1681 64.7089 55.1959 64.0543C54.6894 63.7133 54.3812 63.169 54.2411 62.9006C54.1763 62.7765 54.1224 62.6607 54.0803 62.5648C53.3407 61.8186 52.8625 61.444 52.4582 61.259C52.1686 61.1265 51.8625 61.0664 51.3901 61.1342C51.3082 61.2142 51.2106 61.3086 51.099 61.415C50.7394 61.7582 50.2318 62.2288 49.6385 62.74C48.4783 63.7397 46.8935 64.98 45.4145 65.6737C42.4133 67.0812 39.3787 67.7043 36.4851 67.202C33.5662 66.6951 30.9405 65.0685 28.7442 62.2566C23.2457 55.2165 25.2318 45.0997 29.8146 38.6534C31.7773 35.8925 35.2585 33.1624 38.1286 31.1735C39.5847 30.1646 40.9231 29.3198 41.8978 28.7271C42.3854 28.4305 42.7831 28.1963 43.06 28.0357C43.147 27.9852 43.222 27.942 43.2843 27.9064ZM49.8383 59.0351L50.1025 58.766L50.4702 58.6814C51.5566 58.4314 52.541 58.4558 53.5333 58.91C53.716 58.9937 53.8947 59.0902 54.0705 59.198C54.3017 58.6271 54.6818 58.0725 55.0852 57.5944C55.605 56.9785 56.2592 56.3771 56.9615 55.893C57.3226 55.6441 57.7181 55.4112 58.1335 55.2242C56.9324 54.0962 55.7795 53.3623 54.6402 53.0095C52.9855 52.4971 51.1464 52.7259 48.8789 54.1811L48.8654 54.1897L42.4503 58.086L42.2943 58.1333L41.919 56.8974C42.2943 58.1333 42.2943 58.1333 42.2943 58.1333L42.2929 58.1338L42.2852 58.1361L42.267 58.1416L42.2051 58.1595C42.1529 58.1744 42.0797 58.1949 41.9894 58.2188C41.8096 58.2665 41.5584 58.3289 41.2707 58.3883C40.7322 58.4995 39.9287 58.6303 39.2195 58.5638C38.3252 58.4799 37.4877 58.3002 36.703 57.9091C35.9083 57.513 35.246 56.9397 34.6432 56.1771C33.4267 54.6382 33.2881 53.2336 33.2598 51.5949C33.2332 50.0506 33.5601 48.8033 34.1823 47.6597C34.781 46.5592 35.6339 45.596 36.5522 44.6079C38.3709 42.651 41.2323 40.4712 43.4713 38.88C43.5482 38.8198 43.6279 38.7636 43.7098 38.711C43.9645 38.5312 44.2113 38.3588 44.4481 38.1949C44.0995 37.9209 43.7966 37.6037 43.5372 37.2783C42.5487 36.0382 41.9413 34.3659 41.7476 33.1372C41.6926 32.7883 41.6377 32.3838 41.6118 31.9537C40.99 32.3541 40.3091 32.8055 39.5999 33.2969C36.7504 35.2714 33.6009 37.7859 31.9201 40.1502C27.7008 46.0851 26.2577 54.876 30.7802 60.6664C32.6407 63.0486 34.7276 64.2748 36.927 64.6566C39.1515 65.0429 41.6402 64.5903 44.3176 63.3348C45.4583 62.7998 46.8203 61.7582 47.9522 60.7829C48.5049 60.3067 48.9796 59.8666 49.3158 59.546C49.4836 59.3858 49.6162 59.2563 49.7058 59.1675C49.7508 59.1231 49.7847 59.089 49.8072 59.0665L49.8319 59.0417L49.8383 59.0351ZM45.1395 40.864C45.0917 40.8978 45.0438 40.9318 44.9955 40.966C42.76 42.5536 40.0746 44.6125 38.4445 46.3666C37.5209 47.3603 36.8774 48.1115 36.4515 48.8943C36.0493 49.6336 35.8236 50.4382 35.8427 51.5504C35.8679 53.0126 35.9869 53.7112 36.6698 54.575C37.0839 55.0989 37.4626 55.4013 37.8551 55.5969C38.2576 55.7975 38.7536 55.9253 39.4609 55.9917C39.765 56.0203 40.2508 55.961 40.7484 55.8583C40.9788 55.8108 41.1824 55.7601 41.3277 55.7216C41.353 55.7149 41.3762 55.7087 41.3977 55.7029L47.4565 52.0229L51.4579 49.0184C52.9199 47.9207 54.5193 47.5341 56.0655 47.4214C57.1758 47.3405 58.3534 47.4005 59.4371 47.4556C59.8043 47.4743 60.1607 47.4924 60.5001 47.5043C61.9153 47.554 63.1612 47.5097 64.29 47.1402C65.3758 46.7848 66.4232 46.1043 67.3882 44.741C67.7315 44.2559 68.5968 42.9472 69.0576 41.7172C69.2955 41.082 69.358 40.6395 69.3248 40.3987C69.318 40.3495 69.3092 40.3232 69.3041 40.3115C69.2899 40.3017 69.2545 40.2817 69.1822 40.2604C68.2159 39.9753 67.3055 40.0764 66.1273 40.3356C65.9103 40.3832 65.6808 40.4376 65.4397 40.4946C64.4259 40.7344 63.208 41.0225 61.8597 41.0728C59.3416 41.167 57.3658 40.916 55.4921 40.6778L55.3855 40.6644C53.4835 40.4229 51.6734 40.2008 49.3479 40.3117L49.2929 40.3142L49.2378 40.3122C48.6676 40.2907 47.7359 40.306 46.8442 40.4207C46.3991 40.4779 45.9923 40.5564 45.6586 40.656C45.4012 40.7329 45.2357 40.8082 45.1395 40.864ZM56.4385 61.5095C56.4624 61.565 56.4938 61.6336 56.531 61.7046C56.576 61.791 56.6197 61.8622 56.6566 61.9121C56.663 61.9206 56.6684 61.9276 56.6728 61.9329C56.8464 62.0357 57.105 62.0854 57.5186 61.9686C57.9745 61.8399 58.5133 61.5294 59.0329 61.0628C59.5475 60.6008 59.9797 60.0423 60.2523 59.4996C60.5344 58.938 60.5863 58.5168 60.5412 58.2725C60.4884 57.9859 60.4437 57.8429 60.3989 57.7455C60.3617 57.6646 60.3046 57.5721 60.1662 57.4353L60.1643 57.4333C60.1417 57.4106 60.0694 57.3378 59.7614 57.393C59.4169 57.4548 58.9488 57.6607 58.4277 58.02C57.9191 58.3706 57.4347 58.8158 57.0595 59.2605C56.664 59.7292 56.4762 60.0942 56.4288 60.2723C56.3903 60.417 56.3758 60.7159 56.3983 61.08C56.4083 61.2416 56.4234 61.386 56.436 61.4894C56.4368 61.4963 56.4376 61.503 56.4385 61.5095Z" fill="white"/>
</svg>
