<svg width="97" height="96" viewBox="0 0 97 96" fill="none" xmlns="http://www.w3.org/2000/svg">
<circle cx="48.3335" cy="48" r="48" fill="#42BAE2"/>
<path fill-rule="evenodd" clip-rule="evenodd" d="M54.2254 42.814C54.905 43.2751 55.5301 43.8171 56.0835 44.4412V24.75H58.6668V39.3568C59.6463 38.0553 60.9133 36.9285 62.4984 35.9285C65.3915 34.1033 66.1638 32.0861 66.0581 30.6042C65.9485 29.0668 64.8901 27.7554 63.4251 27.2671L64.2419 24.8163C66.6519 25.6196 68.4476 27.7935 68.6349 30.4205C68.7009 31.3465 68.5668 32.2896 68.2206 33.2174C70.4356 32.3825 72.5522 31.7552 73.8492 31.4262L74.4844 33.9303C72.0741 34.5416 66.9534 36.1725 63.8769 38.1133C62.1353 39.212 60.9483 40.417 60.1414 41.7955C59.3395 43.1654 58.8695 44.7806 58.6668 46.7728V71.25H56.0835V51.875C56.0835 48.4114 54.6674 46.2358 52.7749 44.9517C51.1203 43.8288 49.0163 43.3341 46.9896 43.3878C47.024 43.6286 47.0418 43.8748 47.0418 44.125C47.0418 46.0808 45.9552 47.7829 44.3524 48.6602C43.101 49.3451 41.8752 50.4482 41.8752 51.875V59.625H41.8507C41.5209 63.9601 37.8989 67.375 33.4793 67.375C29.0597 67.375 25.4377 63.9601 25.108 59.625H25.0835V55.75C25.0835 46.4762 32.6014 38.9583 41.8752 38.9583C43.4957 38.9583 44.942 39.7044 45.8893 40.8718C48.6456 40.59 51.746 41.1316 54.2254 42.814ZM41.8752 41.5417C34.0282 41.5417 27.6668 47.903 27.6668 55.75V59.2052L27.6839 59.4291C27.912 62.4277 30.4208 64.7917 33.4793 64.7917C36.5379 64.7917 39.0467 62.4277 39.2748 59.4291L39.2918 59.2052V51.875C39.2918 50.3758 39.9448 49.1691 40.6836 48.3077C41.4111 47.4594 42.3106 46.8328 43.1121 46.3941C43.92 45.9518 44.4585 45.0994 44.4585 44.125C44.4585 42.6982 43.3019 41.5417 41.8752 41.5417Z" fill="white"/>
</svg>
