<svg width="97" height="96" viewBox="0 0 97 96" fill="none" xmlns="http://www.w3.org/2000/svg">
<circle cx="48.667" cy="48" r="48" fill="#254F9A"/>
<path d="M31.8755 44.1243C31.8755 40.5573 40.2713 37.666 48.6672 37.666C57.063 37.666 65.4588 40.5573 65.4588 44.1243C65.4588 47.8466 60.6914 45.5098 58.0258 44.2768C57.9504 44.2419 57.8777 44.337 57.9289 44.4025C62.9012 50.7554 64.0515 57.0724 56.461 60.894C56.4348 60.9072 56.4171 60.93 56.4175 60.9594C56.4215 61.2351 56.4612 61.6913 56.5114 62.2673C56.7939 65.5083 57.407 72.541 53.8338 72.541C50.5206 72.541 50.9444 66.735 51.1702 63.6418C51.211 63.0829 51.2453 62.6126 51.2499 62.2811C51.2506 62.2383 51.2158 62.2077 51.173 62.2077H46.1613C46.1185 62.2077 46.0838 62.2383 46.0844 62.2811C46.089 62.6126 46.1233 63.0829 46.1641 63.6418C46.3899 66.735 46.8137 72.541 43.5005 72.541C39.9273 72.541 40.5404 65.5083 40.8229 62.2674C40.8731 61.6913 40.9129 61.2351 40.9168 60.9594C40.9173 60.93 40.8995 60.9072 40.8733 60.894C33.2828 57.0724 34.4332 50.7554 39.4054 44.4025C39.4566 44.337 39.3839 44.2419 39.3085 44.2768C36.6429 45.5098 31.8755 47.8466 31.8755 44.1243Z" stroke="white" stroke-width="2.58333" stroke-linecap="round"/>
<path d="M53.8338 28.6257C53.8338 31.4791 51.5206 33.7923 48.6672 33.7923C45.8137 33.7923 43.5005 31.4791 43.5005 28.6257C43.5005 25.7722 45.8137 23.459 48.6672 23.459C51.5206 23.459 53.8338 25.7722 53.8338 28.6257Z" stroke="white" stroke-width="2.58333"/>
</svg>
