<svg width="32" height="32" viewBox="0 0 32 32" fill="none" xmlns="http://www.w3.org/2000/svg">
<circle cx="16" cy="16" r="16" fill="#254F9A"/>
<path d="M20.8808 11.7081C20.7795 11.6558 20.681 11.5984 20.5854 11.5362C20.3077 11.3526 20.0531 11.1363 19.827 10.8919C19.2614 10.2447 19.0501 9.58812 18.9723 9.12844H18.9754C18.9104 8.74688 18.9373 8.5 18.9414 8.5H16.3651V18.4619C16.3651 18.5956 16.3651 18.7278 16.3595 18.8584C16.3595 18.8747 16.3579 18.8897 16.357 18.9072C16.357 18.9144 16.357 18.9219 16.3554 18.9294C16.3554 18.9312 16.3554 18.9331 16.3554 18.935C16.3283 19.2924 16.2137 19.6377 16.0218 19.9405C15.8299 20.2432 15.5665 20.4942 15.2548 20.6712C14.93 20.856 14.5626 20.953 14.1889 20.9525C12.9886 20.9525 12.0158 19.9738 12.0158 18.765C12.0158 17.5562 12.9886 16.5775 14.1889 16.5775C14.4161 16.5773 14.6419 16.613 14.8579 16.6834L14.8611 14.0603C14.2052 13.9756 13.539 14.0277 12.9043 14.2134C12.2696 14.3991 11.6803 14.7142 11.1736 15.1391C10.7295 15.5249 10.3562 15.9852 10.0704 16.4994C9.9617 16.6869 9.55138 17.4403 9.5017 18.6631C9.47045 19.3572 9.67888 20.0763 9.77826 20.3734V20.3797C9.84076 20.5547 10.0829 21.1519 10.4776 21.6553C10.7959 22.0591 11.1719 22.4139 11.5936 22.7081V22.7019L11.5998 22.7081C12.847 23.5556 14.2298 23.5 14.2298 23.5C14.4692 23.4903 15.2711 23.5 16.1817 23.0684C17.1917 22.59 17.7667 21.8772 17.7667 21.8772C18.134 21.4513 18.4261 20.9659 18.6304 20.4419C18.8636 19.8291 18.9414 19.0941 18.9414 18.8003V13.5153C18.9726 13.5341 19.3889 13.8094 19.3889 13.8094C19.3889 13.8094 19.9886 14.1937 20.9242 14.4441C21.5954 14.6222 22.4998 14.6597 22.4998 14.6597V12.1022C22.1829 12.1366 21.5395 12.0366 20.8808 11.7081Z" fill="white"/>
</svg>
