<svg width="33" height="32" viewBox="0 0 33 32" fill="none" xmlns="http://www.w3.org/2000/svg">
<circle cx="16.4614" cy="16" r="16" fill="#254F9A"/>
<path d="M16.4614 12.207C15.7114 12.207 14.9783 12.4294 14.3547 12.8461C13.7311 13.2627 13.2451 13.855 12.9581 14.5478C12.6711 15.2407 12.596 16.0032 12.7423 16.7387C12.8886 17.4743 13.2498 18.1499 13.7801 18.6802C14.3104 19.2106 14.986 19.5717 15.7216 19.718C16.4572 19.8643 17.2196 19.7892 17.9125 19.5022C18.6054 19.2152 19.1976 18.7292 19.6142 18.1056C20.0309 17.482 20.2533 16.7489 20.2533 15.999C20.2533 15.501 20.1552 15.0079 19.9647 14.5478C19.7741 14.0878 19.4948 13.6698 19.1427 13.3176C18.7906 12.9655 18.3725 12.6862 17.9125 12.4957C17.4524 12.3051 16.9593 12.207 16.4614 12.207ZM16.4614 18.4607C15.9745 18.4607 15.4985 18.3163 15.0937 18.0458C14.6889 17.7753 14.3733 17.3908 14.187 16.941C14.0007 16.4912 13.9519 15.9962 14.0469 15.5187C14.1419 15.0411 14.3764 14.6025 14.7207 14.2582C15.0649 13.9139 15.5036 13.6795 15.9811 13.5845C16.4587 13.4895 16.9536 13.5383 17.4035 13.7246C17.8533 13.9109 18.2377 14.2264 18.5082 14.6313C18.7787 15.0361 18.9231 15.5121 18.9231 15.999C18.9231 16.3222 18.8595 16.6424 18.7358 16.9411C18.6121 17.2397 18.4308 17.5111 18.2022 17.7397C17.9736 17.9683 17.7022 18.1497 17.4035 18.2734C17.1048 18.3971 16.7847 18.4607 16.4614 18.4607Z" fill="white"/>
<path d="M23.8012 12.9553C23.7891 12.3427 23.6731 11.7366 23.4582 11.1629C23.2725 10.6702 22.9818 10.2239 22.6064 9.85472C22.2378 9.47895 21.7916 9.18824 21.2989 9.00293C20.7251 8.78787 20.119 8.67189 19.5064 8.65994C18.719 8.6241 18.4673 8.61523 16.4619 8.61523C14.4565 8.61523 14.2046 8.62355 13.4167 8.65994C12.8042 8.67205 12.1981 8.78802 11.6243 9.00293C11.1315 9.18841 10.6851 9.47909 10.3161 9.85472C9.94017 10.2234 9.64945 10.6699 9.46441 11.1629C9.2495 11.7366 9.13353 12.3427 9.12142 12.9553C9.08502 13.7427 9.07666 13.9944 9.07666 15.9998C9.07666 18.0053 9.08502 18.257 9.1214 19.0444C9.13351 19.6569 9.24949 20.263 9.46441 20.8368C9.6495 21.3298 9.94022 21.7763 10.3161 22.145C10.6853 22.5204 11.1317 22.811 11.6243 22.9967C12.1981 23.2116 12.8042 23.3275 13.4167 23.3397C14.2046 23.3755 14.4559 23.3845 16.4613 23.3845C18.4667 23.3845 18.7185 23.3761 19.5058 23.3397C20.1184 23.3276 20.7245 23.2116 21.2983 22.9967C21.7889 22.807 22.2345 22.5169 22.6064 22.145C22.9784 21.773 23.2685 21.3275 23.4582 20.8368C23.6734 20.2631 23.7894 19.657 23.8012 19.0444C23.837 18.2564 23.8454 18.0053 23.8454 15.9998C23.8454 13.9944 23.837 13.7427 23.8012 12.9553ZM22.4727 18.9842C22.467 19.4524 22.3811 19.9163 22.2187 20.3555C22.0958 20.674 21.9075 20.9632 21.6661 21.2045C21.4247 21.4458 21.1354 21.6339 20.8169 21.7567C20.3778 21.9195 19.9138 22.0054 19.4455 22.0107C18.6671 22.0465 18.4333 22.0537 16.4612 22.0537C14.4892 22.0537 14.256 22.0465 13.4779 22.0107C13.0095 22.0054 12.5456 21.9194 12.1065 21.7567C11.7857 21.6382 11.4955 21.4494 11.2571 21.2043C11.0116 20.9664 10.8228 20.6763 10.7047 20.3555C10.5419 19.9164 10.4559 19.4525 10.4507 18.9842C10.4148 18.2058 10.4077 17.972 10.4077 15.9999C10.4077 14.0278 10.4155 13.7947 10.4507 13.0156C10.4566 12.5474 10.5425 12.0836 10.7047 11.6443C10.8232 11.3236 11.0119 11.0333 11.2571 10.7949C11.4951 10.5493 11.7854 10.3605 12.1065 10.2425C12.5456 10.0797 13.0095 9.9938 13.4779 9.9885C14.2562 9.95269 14.4901 9.94556 16.4612 9.94556C18.4324 9.94556 18.6665 9.9533 19.4455 9.9885C19.9138 9.9944 20.3776 10.0803 20.8169 10.2425C21.1355 10.3653 21.4249 10.5535 21.6663 10.7949C21.9078 11.0364 22.0959 11.3257 22.2187 11.6443C22.3815 12.0834 22.4674 12.5473 22.4727 13.0156C22.5085 13.7947 22.5157 14.0279 22.5157 15.9999C22.5157 17.9719 22.5085 18.2051 22.4727 18.9842Z" fill="white"/>
<path d="M20.4033 11.1719C20.1683 11.1719 19.9426 11.2653 19.7765 11.4315C19.6104 11.5976 19.5171 11.823 19.5171 12.058C19.5171 12.2929 19.6105 12.5183 19.7766 12.6844C19.9428 12.8505 20.1681 12.9439 20.4031 12.9439C20.6381 12.9439 20.8634 12.8505 21.0296 12.6844C21.1957 12.5183 21.2891 12.2929 21.2891 12.058C21.2891 11.823 21.1958 11.5976 21.0297 11.4315C20.8635 11.2653 20.6382 11.1719 20.4033 11.1719Z" fill="white"/>
</svg>
