<svg width="33" height="32" viewBox="0 0 33 32" fill="none" xmlns="http://www.w3.org/2000/svg">
<circle cx="16.1538" cy="16" r="16" fill="#254F9A"/>
<circle cx="16.1538" cy="16" r="16" fill="#254F9A"/>
<path d="M10.8752 12.2982H10.8538C10.6211 12.3122 10.3881 12.2781 10.1692 12.198C9.95032 12.118 9.75029 11.9936 9.58161 11.8328C9.41293 11.6719 9.27922 11.4781 9.18884 11.2632C9.09845 11.0484 9.05333 10.8172 9.05629 10.5842C9.05925 10.3511 9.11022 10.1212 9.20603 9.90871C9.30184 9.69625 9.44043 9.50581 9.61314 9.3493C9.78584 9.19279 9.98896 9.07357 10.2098 8.99908C10.4307 8.92459 10.6645 8.89644 10.8967 8.91637C11.1301 8.89947 11.3644 8.93103 11.585 9.00908C11.8056 9.08712 12.0077 9.20996 12.1785 9.36986C12.3493 9.52977 12.4852 9.72329 12.5776 9.93824C12.67 10.1532 12.7169 10.385 12.7154 10.6189C12.7139 10.8529 12.664 11.084 12.5689 11.2978C12.4738 11.5116 12.3354 11.7033 12.1626 11.8611C11.9897 12.0188 11.7861 12.139 11.5646 12.2142C11.343 12.2895 11.1083 12.318 10.8752 12.2982Z" fill="white"/>
<path d="M9.36865 14.5742H12.4037V23.6792H9.36865V14.5742Z" fill="white"/>
<path d="M20.3699 14.5742C19.8585 14.5756 19.354 14.6926 18.8941 14.9164C18.4342 15.1402 18.0309 15.4651 17.7142 15.8667V14.5742H14.6792V23.6792H17.7142V19.5061C17.7142 19.1036 17.8741 18.7176 18.1587 18.4331C18.4433 18.1485 18.8293 17.9886 19.2318 17.9886C19.6342 17.9886 20.0202 18.1485 20.3048 18.4331C20.5894 18.7176 20.7493 19.1036 20.7493 19.5061V23.6792H23.7843V17.9886C23.7843 17.5402 23.696 17.0962 23.5244 16.682C23.3528 16.2677 23.1013 15.8913 22.7843 15.5743C22.4672 15.2572 22.0908 15.0057 21.6765 14.8341C21.2623 14.6625 20.8183 14.5742 20.3699 14.5742Z" fill="white"/>
</svg>
